<svg xmlns="http://www.w3.org/2000/svg" version="1.1" xmlns:xlink="http://www.w3.org/1999/xlink" xmlns:svgjs="http://svgjs.dev/svgjs" width="1440" height="560" preserveAspectRatio="none" viewBox="0 0 1440 560"><g mask="url(&quot;#SvgjsMask1175&quot;)" fill="none"><path d="M365.88,448.673C406.899,450.437,443.74,423.952,463.434,387.927C482.351,353.323,478.609,312.052,459.39,277.615C439.613,242.177,406.463,213.298,365.88,213.124C325.046,212.949,289.323,240.33,270.968,276.806C254.285,309.959,263.906,347.63,281.848,380.119C300.578,414.036,327.171,447.009,365.88,448.673" fill="rgba(65, 59, 59, 0.42)" class="triangle-float1"></path><path d="M745.745,199.467C762.811,200.234,778.746,189.881,786.675,174.749C794.11,160.56,789.76,144.198,782.068,130.147C773.968,115.351,762.61,99.655,745.745,99.984C729.195,100.307,719.092,116.658,711.799,131.518C705.529,144.293,704.365,158.606,710.725,171.337C717.897,185.693,729.713,198.747,745.745,199.467" fill="rgba(65, 59, 59, 0.42)" class="triangle-float3"></path><path d="M644.864,567.554C666.776,568.471,687.082,554.932,697.199,535.474C706.635,517.325,700.576,496.69,691.145,478.538C680.65,458.339,667.579,436.221,644.864,434.747C620.332,433.155,597.286,449.507,586.86,471.77C577.622,491.495,588.322,512.758,599.604,531.389C610.325,549.094,624.184,566.688,644.864,567.554" fill="rgba(65, 59, 59, 0.42)" class="triangle-float1"></path><path d="M1375.404,201.03C1417.482,198.924,1447.503,166.158,1469.889,130.467C1494.335,91.491,1521.234,44.846,1498.426,4.89C1475.518,-35.242,1421.555,-37.384,1375.404,-35.055C1334.258,-32.979,1294.348,-18.404,1272.16,16.308C1248.136,53.892,1241.22,101.886,1262.983,140.823C1285.212,180.594,1329.9,203.307,1375.404,201.03" fill="rgba(65, 59, 59, 0.42)" class="triangle-float3"></path><path d="M120.866,142.455C137.934,142.382,154.032,133.369,162.101,118.329C169.784,104.008,166.848,86.722,158.119,73.013C150.055,60.348,135.874,54.003,120.866,53.565C104.922,53.1,88.272,57.306,79.648,70.724C70.382,85.14,70.473,103.827,79.011,118.686C87.578,133.596,103.67,142.529,120.866,142.455" fill="rgba(65, 59, 59, 0.42)" class="triangle-float1"></path><path d="M1115.554,603.25C1160.533,604.825,1197.238,572.507,1220.96,534.259C1246.342,493.335,1265.297,442.554,1241.014,400.969C1216.864,359.612,1163.395,351.529,1115.554,353.745C1072.177,355.754,1029.299,373.484,1008.729,411.727C989.038,448.336,1001.956,490.994,1022.205,527.298C1043.149,564.847,1072.585,601.745,1115.554,603.25" fill="rgba(65, 59, 59, 0.42)" class="triangle-float3"></path></g><defs><mask id="SvgjsMask1175"><rect width="1440" height="560" fill="#ffffff"></rect></mask><style>
                @keyframes float1 {
                    0%{transform: translate(0, 0)}
                    50%{transform: translate(-10px, 0)}
                    100%{transform: translate(0, 0)}
                }

                .triangle-float1 {
                    animation: float1 5s infinite;
                }

                @keyframes float2 {
                    0%{transform: translate(0, 0)}
                    50%{transform: translate(-5px, -5px)}
                    100%{transform: translate(0, 0)}
                }

                .triangle-float2 {
                    animation: float2 4s infinite;
                }

                @keyframes float3 {
                    0%{transform: translate(0, 0)}
                    50%{transform: translate(0, -10px)}
                    100%{transform: translate(0, 0)}
                }

                .triangle-float3 {
                    animation: float3 6s infinite;
                }
            </style></defs></svg>