<svg xmlns="http://www.w3.org/2000/svg" version="1.1" xmlns:xlink="http://www.w3.org/1999/xlink" xmlns:svgjs="http://svgjs.dev/svgjs" width="768" height="970" preserveAspectRatio="none" viewBox="0 0 768 970"><g mask="url(&quot;#SvgjsMask1416&quot;)" fill="none"><path d="M654.8,1005.791C708.087,1006.231,768.711,1000.74,794.772,954.258C820.508,908.356,790.568,855.824,764.52,810.098C738.082,763.686,708.068,712.489,654.8,708.539C596.201,704.194,541.406,740.133,512.744,791.429C484.746,841.537,487.069,904.132,518.776,951.978C547.645,995.542,602.541,1005.359,654.8,1005.791" fill="rgba(65, 59, 59, 0.42)" class="triangle-float3"></path><path d="M263.403,218.41C315.358,215.759,359.466,185.935,387.381,142.036C417.925,94.002,441.594,33.292,412.061,-15.37C383.169,-62.977,319.008,-65.279,263.403,-62.246C214.317,-59.569,168.01,-41.233,140.41,-0.553C108.627,46.293,87.668,106.555,115.392,155.912C143.503,205.957,206.078,221.335,263.403,218.41" fill="rgba(65, 59, 59, 0.42)" class="triangle-float2"></path><path d="M207.503,549.629C242.433,548.517,265.947,517.01,281.595,485.761C295.378,458.238,296.606,427.034,282.627,399.61C267.108,369.165,241.618,342.389,207.503,340.409C170.268,338.248,133.574,357.241,115.591,389.918C98.151,421.609,106.722,459.4,124.765,490.752C142.861,522.197,171.241,550.783,207.503,549.629" fill="rgba(65, 59, 59, 0.42)" class="triangle-float3"></path><path d="M660.048,304.617C690.76,304.404,720.659,291.608,736.494,265.292C752.808,238.18,753.474,203.743,737.003,176.726C721.137,150.702,690.519,139.193,660.048,139.902C630.897,140.58,604.405,155.377,589.054,180.168C572.783,206.445,566.425,239.521,581.74,266.367C597.168,293.412,628.913,304.833,660.048,304.617" fill="rgba(65, 59, 59, 0.42)" class="triangle-float2"></path><path d="M342.202,892.415C373.785,893.917,405.909,881.61,422.168,854.491C438.836,826.69,436.48,791.298,419.31,763.804C403.095,737.839,372.806,725.734,342.202,726.441C312.903,727.118,285.354,741.663,271.031,767.232C257.01,792.261,260.229,822.524,274.408,847.464C288.771,872.727,313.174,891.034,342.202,892.415" fill="rgba(65, 59, 59, 0.42)" class="triangle-float3"></path></g><defs><mask id="SvgjsMask1416"><rect width="768" height="970" fill="#ffffff"></rect></mask><style>
                @keyframes float1 {
                    0%{transform: translate(0, 0)}
                    50%{transform: translate(-10px, 0)}
                    100%{transform: translate(0, 0)}
                }

                .triangle-float1 {
                    animation: float1 5s infinite;
                }

                @keyframes float2 {
                    0%{transform: translate(0, 0)}
                    50%{transform: translate(-5px, -5px)}
                    100%{transform: translate(0, 0)}
                }

                .triangle-float2 {
                    animation: float2 4s infinite;
                }

                @keyframes float3 {
                    0%{transform: translate(0, 0)}
                    50%{transform: translate(0, -10px)}
                    100%{transform: translate(0, 0)}
                }

                .triangle-float3 {
                    animation: float3 6s infinite;
                }
            </style></defs></svg>